<svg id="Layer_1" data-name="Layer 1" xmlns="http://www.w3.org/2000/svg" version="1.1" viewBox="0 0 1080 287.31">
  <defs>
    <style>
      .cls-1 {
        fill: currentColor;
        stroke-width: 0px;
      }
    </style>
  </defs>
  <g>
    <path class="cls-1" d="M102.25,51.65h73.56c14.56,0,25.42.61,32.57,1.82s13.56,3.75,19.2,7.59c5.65,3.85,10.35,8.98,14.12,15.38,3.77,6.4,5.65,13.58,5.65,21.53,0,8.62-2.32,16.53-6.97,23.72-4.64,7.2-10.94,12.6-18.89,16.19,11.21,3.26,19.83,8.83,25.86,16.7,6.03,7.87,9.04,17.11,9.04,27.74,0,8.37-1.95,16.5-5.84,24.41-3.89,7.91-9.21,14.23-15.94,18.95-6.74,4.73-15.04,7.64-24.92,8.72-6.19.67-21.13,1.09-44.81,1.26h-62.64V51.65ZM139.4,82.27v42.55h24.35c14.48,0,23.47-.21,26.99-.63,6.36-.75,11.36-2.95,15-6.59,3.64-3.64,5.46-8.43,5.46-14.37s-1.57-10.31-4.71-13.87c-3.14-3.56-7.8-5.71-14-6.46-3.68-.42-14.27-.63-31.76-.63h-21.34ZM139.4,155.45v49.2h34.39c13.39,0,21.88-.38,25.48-1.13,5.52-1,10.02-3.45,13.49-7.34,3.47-3.89,5.21-9.1,5.21-15.63,0-5.52-1.34-10.21-4.02-14.06-2.68-3.85-6.55-6.65-11.61-8.41-5.06-1.76-16.05-2.64-32.95-2.64h-30Z"/>
    <path class="cls-1" d="M287.89,235.66V51.65h78.2c19.66,0,33.95,1.65,42.87,4.96,8.91,3.31,16.05,9.19,21.4,17.64,5.35,8.45,8.03,18.12,8.03,28.99,0,13.81-4.06,25.21-12.18,34.2-8.12,9-20.25,14.67-36.4,17.01,8.03,4.69,14.66,9.83,19.9,15.44,5.23,5.61,12.28,15.57,21.15,29.87l22.47,35.9h-44.43l-26.86-40.04c-9.54-14.31-16.07-23.33-19.58-27.05-3.51-3.72-7.24-6.28-11.17-7.66-3.93-1.38-10.17-2.07-18.7-2.07h-7.53v76.82h-37.15ZM325.05,129.47h27.49c17.82,0,28.95-.75,33.39-2.26,4.43-1.51,7.91-4.1,10.42-7.78,2.51-3.68,3.77-8.29,3.77-13.81,0-6.19-1.65-11.19-4.96-15-3.31-3.81-7.97-6.21-14-7.22-3.01-.42-12.05-.63-27.11-.63h-29v46.69Z"/>
    <path class="cls-1" d="M591.15,168l36.02,11.42c-5.52,20.09-14.71,35-27.55,44.75-12.85,9.75-29.14,14.62-48.89,14.62-24.43,0-44.52-8.35-60.25-25.04-15.73-16.7-23.6-39.52-23.6-68.47,0-30.63,7.91-54.41,23.72-71.36,15.81-16.94,36.61-25.42,62.38-25.42,22.51,0,40.8,6.65,54.85,19.96,8.37,7.87,14.64,19.16,18.83,33.89l-36.78,8.79c-2.18-9.54-6.71-17.07-13.62-22.59-6.9-5.52-15.29-8.28-25.17-8.28-13.64,0-24.71,4.89-33.2,14.68-8.49,9.79-12.74,25.65-12.74,47.57,0,23.26,4.18,39.83,12.55,49.71,8.37,9.87,19.25,14.81,32.63,14.81,9.87,0,18.37-3.14,25.48-9.41,7.11-6.28,12.22-16.15,15.31-29.62Z"/>
    <path class="cls-1" d="M659.56,235.66V51.65h37.15v81.71l75.06-81.71h49.96l-69.29,71.67,73.05,112.34h-48.08l-50.59-86.36-30.12,30.75v55.61h-37.15Z"/>
    <path class="cls-1" d="M886.12,235.66V82.78h-54.6v-31.13h146.23v31.13h-54.48v152.88h-37.15Z"/>
  </g>
  <path class="cls-1" d="M1080,161.59c-7.28.4-12.76,1.5-16.44,3.29-3.69,1.79-6.85,4.81-9.49,9.04-2.64,4.24-4.51,9.54-5.61,15.92-.8,4.78-1.2,13.06-1.2,24.81,0,19.33-.87,32.83-2.62,40.51-1.74,7.67-4.96,13.83-9.64,18.46-4.69,4.63-11.56,8.3-20.63,10.99-6.08,1.79-15.65,2.69-28.7,2.69h-7.92v-35.88c10.66,0,17.64-.67,20.93-2.02,3.29-1.34,5.7-3.29,7.25-5.83,1.54-2.54,2.34-6.85,2.39-12.93.05-6.08.47-17.69,1.27-34.83.5-10.36,1.84-18.66,4.04-24.89,2.19-6.23,5.11-11.51,8.74-15.84,3.64-4.33,8.3-8.14,13.98-11.44-7.38-4.78-12.76-9.47-16.14-14.05-4.69-6.58-7.87-14.95-9.57-25.11-1.1-6.98-1.89-22.32-2.39-46.04-.1-7.47-.77-12.45-2.02-14.95-1.25-2.49-3.49-4.41-6.73-5.75-3.24-1.35-10.49-2.02-21.75-2.02V0h7.92c13.45,0,23.77,1.05,30.94,3.14,7.17,2.09,13.2,5.66,18.09,10.69,4.88,5.03,8.2,11.21,9.94,18.54,1.74,7.33,2.62,18.86,2.62,34.61,0,18.24.75,30.15,2.24,35.72,2.19,7.97,5.53,13.68,10.02,17.12,4.48,3.44,11.31,5.41,20.48,5.91v35.88Z"/>
  <path class="cls-1" d="M0,125.72c9.17-.5,15.99-2.47,20.48-5.91,4.48-3.44,7.83-9.14,10.02-17.12,1.5-5.58,2.24-17.49,2.24-35.72,0-15.75.87-27.28,2.62-34.61,1.74-7.33,5.06-13.5,9.94-18.54,4.88-5.03,10.91-8.59,18.09-10.69C70.56,1.05,80.87,0,94.32,0h7.92v35.73c-11.26,0-18.51.67-21.75,2.02-3.24,1.34-5.48,3.26-6.73,5.75-1.25,2.49-1.92,7.47-2.02,14.95-.5,23.72-1.29,39.07-2.39,46.04-1.69,10.16-4.88,18.53-9.57,25.11-3.39,4.58-8.77,9.27-16.14,14.05,5.68,3.29,10.34,7.1,13.98,11.44,3.64,4.34,6.55,9.62,8.74,15.84,2.19,6.23,3.54,14.53,4.04,24.89.8,17.14,1.22,28.75,1.27,34.83.05,6.08.85,10.39,2.39,12.93,1.55,2.54,3.96,4.48,7.25,5.83,3.29,1.34,10.26,2.02,20.93,2.02v35.88h-7.92c-13.05,0-22.62-.9-28.7-2.69-9.07-2.69-15.94-6.35-20.63-10.99-4.68-4.64-7.9-10.79-9.64-18.46-1.74-7.68-2.62-21.18-2.62-40.51,0-11.76-.4-20.03-1.2-24.81-1.1-6.38-2.96-11.68-5.61-15.92-2.64-4.23-5.8-7.25-9.49-9.04-3.69-1.79-9.17-2.89-16.44-3.29v-35.88Z"/>
</svg>