<?xml version="1.0" encoding="UTF-8"?>
<svg id="Layer_1" xmlns="http://www.w3.org/2000/svg" version="1.1" viewBox="0 0 1080 287.3">
  <!-- Generator: Adobe Illustrator 29.1.0, SVG Export Plug-In . SVG Version: 2.1.0 Build 142)  -->
  <defs>
    <style>
      .st0 {
        fill: #3b82f6;
      }
    </style>
  </defs>
  <g>
    <path class="st0" d="M102.2,51.7h73.6c14.6,0,25.4.6,32.6,1.8s13.6,3.8,19.2,7.6c5.6,3.9,10.4,9,14.1,15.4,3.8,6.4,5.6,13.6,5.6,21.5s-2.3,16.5-7,23.7c-4.6,7.2-10.9,12.6-18.9,16.2,11.2,3.3,19.8,8.8,25.9,16.7s9,17.1,9,27.7-1.9,16.5-5.8,24.4-9.2,14.2-15.9,18.9c-6.7,4.7-15,7.6-24.9,8.7-6.2.7-21.1,1.1-44.8,1.3h-62.6V51.7h0ZM139.4,82.3v42.5h24.4c14.5,0,23.5-.2,27-.6,6.4-.8,11.4-2.9,15-6.6,3.6-3.6,5.5-8.4,5.5-14.4s-1.6-10.3-4.7-13.9c-3.1-3.6-7.8-5.7-14-6.5-3.7-.4-14.3-.6-31.8-.6h-21.3,0ZM139.4,155.4v49.2h34.4c13.4,0,21.9-.4,25.5-1.1,5.5-1,10-3.4,13.5-7.3s5.2-9.1,5.2-15.6-1.3-10.2-4-14.1c-2.7-3.9-6.6-6.6-11.6-8.4-5.1-1.8-16.1-2.6-32.9-2.6h-30,0Z"/>
    <path class="st0" d="M287.9,235.7V51.7h78.2c19.7,0,34,1.7,42.9,5,8.9,3.3,16,9.2,21.4,17.6s8,18.1,8,29-4.1,25.2-12.2,34.2c-8.1,9-20.2,14.7-36.4,17,8,4.7,14.7,9.8,19.9,15.4,5.2,5.6,12.3,15.6,21.1,29.9l22.5,35.9h-44.4l-26.9-40c-9.5-14.3-16.1-23.3-19.6-27.1-3.5-3.7-7.2-6.3-11.2-7.7-3.9-1.4-10.2-2.1-18.7-2.1h-7.5v76.8h-37.2ZM325,129.5h27.5c17.8,0,29-.8,33.4-2.3,4.4-1.5,7.9-4.1,10.4-7.8s3.8-8.3,3.8-13.8-1.6-11.2-5-15-8-6.2-14-7.2c-3-.4-12-.6-27.1-.6h-29v46.7h0Z"/>
    <path class="st0" d="M591.2,168l36,11.4c-5.5,20.1-14.7,35-27.5,44.8-12.8,9.8-29.1,14.6-48.9,14.6s-44.5-8.4-60.2-25c-15.7-16.7-23.6-39.5-23.6-68.5s7.9-54.4,23.7-71.4c15.8-16.9,36.6-25.4,62.4-25.4s40.8,6.7,54.8,20c8.4,7.9,14.6,19.2,18.8,33.9l-36.8,8.8c-2.2-9.5-6.7-17.1-13.6-22.6-6.9-5.5-15.3-8.3-25.2-8.3s-24.7,4.9-33.2,14.7-12.7,25.7-12.7,47.6,4.2,39.8,12.5,49.7c8.4,9.9,19.2,14.8,32.6,14.8s18.4-3.1,25.5-9.4c7.1-6.3,12.2-16.1,15.3-29.6h0Z"/>
    <path class="st0" d="M659.6,235.7V51.7h37.2v81.7l75.1-81.7h50l-69.3,71.7,73,112.3h-48.1l-50.6-86.4-30.1,30.8v55.6h-37.2,0Z"/>
    <path class="st0" d="M886.1,235.7V82.8h-54.6v-31.1h146.2v31.1h-54.5v152.9h-37.2Z"/>
  </g>
  <path class="st0" d="M1080,161.6c-7.3.4-12.8,1.5-16.4,3.3-3.7,1.8-6.8,4.8-9.5,9-2.6,4.2-4.5,9.5-5.6,15.9-.8,4.8-1.2,13.1-1.2,24.8,0,19.3-.9,32.8-2.6,40.5-1.7,7.7-5,13.8-9.6,18.5-4.7,4.6-11.6,8.3-20.6,11-6.1,1.8-15.7,2.7-28.7,2.7h-7.9v-35.9c10.7,0,17.6-.7,20.9-2,3.3-1.3,5.7-3.3,7.2-5.8,1.5-2.5,2.3-6.9,2.4-12.9,0-6.1.5-17.7,1.3-34.8.5-10.4,1.8-18.7,4-24.9,2.2-6.2,5.1-11.5,8.7-15.8,3.6-4.3,8.3-8.1,14-11.4-7.4-4.8-12.8-9.5-16.1-14.1-4.7-6.6-7.9-14.9-9.6-25.1-1.1-7-1.9-22.3-2.4-46,0-7.5-.8-12.5-2-15-1.2-2.5-3.5-4.4-6.7-5.8-3.2-1.3-10.5-2-21.8-2V0h7.9c13.5,0,23.8,1,30.9,3.1,7.2,2.1,13.2,5.7,18.1,10.7,4.9,5,8.2,11.2,9.9,18.5s2.6,18.9,2.6,34.6.8,30.2,2.2,35.7c2.2,8,5.5,13.7,10,17.1,4.5,3.4,11.3,5.4,20.5,5.9v35.9h0Z"/>
  <path class="st0" d="M0,125.7c9.2-.5,16-2.5,20.5-5.9,4.5-3.4,7.8-9.1,10-17.1,1.5-5.6,2.2-17.5,2.2-35.7s.9-27.3,2.6-34.6c1.7-7.3,5.1-13.5,9.9-18.5,4.9-5,10.9-8.6,18.1-10.7,7.2-2.1,17.5-3.1,30.9-3.1h7.9v35.7c-11.3,0-18.5.7-21.8,2-3.2,1.3-5.5,3.3-6.7,5.8s-1.9,7.5-2,15c-.5,23.7-1.3,39.1-2.4,46-1.7,10.2-4.9,18.5-9.6,25.1-3.4,4.6-8.8,9.3-16.1,14.1,5.7,3.3,10.3,7.1,14,11.4s6.5,9.6,8.7,15.8c2.2,6.2,3.5,14.5,4,24.9.8,17.1,1.2,28.8,1.3,34.8,0,6.1.8,10.4,2.4,12.9,1.6,2.5,4,4.5,7.2,5.8,3.3,1.3,10.3,2,20.9,2v35.9h-7.9c-13.1,0-22.6-.9-28.7-2.7-9.1-2.7-15.9-6.4-20.6-11-4.7-4.6-7.9-10.8-9.6-18.5-1.7-7.7-2.6-21.2-2.6-40.5s-.4-20-1.2-24.8c-1.1-6.4-3-11.7-5.6-15.9-2.6-4.2-5.8-7.2-9.5-9s-9.2-2.9-16.4-3.3v-35.9h0Z"/>
</svg>