<?xml version="1.0" encoding="UTF-8"?>
<svg id="Layer_1" xmlns="http://www.w3.org/2000/svg" version="1.1" viewBox="0 0 287.3 287.3">
  <!-- Generator: Adobe Illustrator 29.1.0, SVG Export Plug-In . SVG Version: 2.1.0 Build 142)  -->
  <defs>
    <style>
      .st0 {
        fill: #3b82f6;
      }
    </style>
  </defs>
  <path class="st0" d="M287.3,161.6c-7.3.4-12.8,1.5-16.4,3.3-3.7,1.8-6.8,4.8-9.5,9-2.6,4.2-4.5,9.5-5.6,15.9-.8,4.8-1.2,13.1-1.2,24.8,0,19.3-.9,32.8-2.6,40.5-1.7,7.7-5,13.8-9.6,18.5-4.7,4.6-11.6,8.3-20.6,11-6.1,1.8-15.7,2.7-28.7,2.7h-7.9v-35.9c10.7,0,17.6-.7,20.9-2,3.3-1.3,5.7-3.3,7.2-5.8,1.5-2.5,2.3-6.9,2.4-12.9,0-6.1.5-17.7,1.3-34.8.5-10.4,1.8-18.7,4-24.9,2.2-6.2,5.1-11.5,8.7-15.8,3.6-4.3,8.3-8.1,14-11.4-7.4-4.8-12.8-9.5-16.1-14.1-4.7-6.6-7.9-14.9-9.6-25.1-1.1-7-1.9-22.3-2.4-46,0-7.5-.8-12.5-2-15-1.2-2.5-3.5-4.4-6.7-5.8-3.2-1.3-10.5-2-21.8-2V0h7.9c13.5,0,23.8,1,30.9,3.1,7.2,2.1,13.2,5.7,18.1,10.7,4.9,5,8.2,11.2,9.9,18.5s2.6,18.9,2.6,34.6.8,30.2,2.2,35.7c2.2,8,5.5,13.7,10,17.1,4.5,3.4,11.3,5.4,20.5,5.9v35.9h0Z"/>
  <path class="st0" d="M0,125.7c9.2-.5,16-2.5,20.5-5.9,4.5-3.4,7.8-9.1,10-17.1,1.5-5.6,2.2-17.5,2.2-35.7s.9-27.3,2.6-34.6c1.7-7.3,5.1-13.5,9.9-18.5,4.9-5,10.9-8.6,18.1-10.7C70.6,1,80.9,0,94.3,0h7.9v35.7c-11.3,0-18.5.7-21.8,2-3.2,1.3-5.5,3.3-6.7,5.8s-1.9,7.5-2,15c-.5,23.7-1.3,39.1-2.4,46-1.7,10.2-4.9,18.5-9.6,25.1-3.4,4.6-8.8,9.3-16.1,14.1,5.7,3.3,10.3,7.1,14,11.4s6.5,9.6,8.7,15.8c2.2,6.2,3.5,14.5,4,24.9.8,17.1,1.2,28.8,1.3,34.8,0,6.1.8,10.4,2.4,12.9,1.6,2.5,4,4.5,7.2,5.8,3.3,1.3,10.3,2,20.9,2v35.9h-7.9c-13.1,0-22.6-.9-28.7-2.7-9.1-2.7-15.9-6.4-20.6-11-4.7-4.6-7.9-10.8-9.6-18.5-1.7-7.7-2.6-21.2-2.6-40.5s-.4-20-1.2-24.8c-1.1-6.4-3-11.7-5.6-15.9-2.6-4.2-5.8-7.2-9.5-9s-9.2-2.9-16.4-3.3v-35.9h0Z"/>
</svg>